grf
version=1
nRows=15
nColumns=37
inDegrees=no
endheader
time	ground_force_1_vx	ground_force_1_vy	ground_force_1_vz	ground_force_1_px	ground_force_1_py	ground_force_1_pz	ground_moment_1_mx	ground_moment_1_my	ground_moment_1_mz	ground_force_2_vx	ground_force_2_vy	ground_force_2_vz	ground_force_2_px	ground_force_2_py	ground_force_2_pz	ground_moment_2_mx	ground_moment_2_my	ground_moment_2_mz	ground_force_3_vx	ground_force_3_vy	ground_force_3_vz	ground_force_3_px	ground_force_3_py	ground_force_3_pz	ground_moment_3_mx	ground_moment_3_my	ground_moment_3_mz	ground_force_4_vx	ground_force_4_vy	ground_force_4_vz	ground_force_4_px	ground_force_4_py	ground_force_4_pz	ground_moment_4_mx	ground_moment_4_my	ground_moment_4_mz
      0.00000000	      0.00000000	     -0.00000000	      0.00000000	      0.00000000	      0.00000000	      0.00000000	      0.00000000	      0.00000000	      0.00000000	     -7.85190821	    105.55964661	   -441.71768188	   -324.09102483	  -1203.89083635	      0.00000000	      0.00000000	      0.00000000	   2284.45998609	    -12.68565206	   -112.25807842	   -458.54605103	   -314.98038892	   -582.44621924	      0.00000000	     -0.00000000	     -0.00000000	  -2005.80099393	      0.00000000	     -0.00000000	      0.00000000	      0.00000000	      0.00000000	      0.00000000	      0.00000000	      0.00000000	      0.00000000
      0.01000000	      0.00000000	     -0.00000000	      0.00000000	      0.00000000	      0.00000000	      0.00000000	      0.00000000	      0.00000000	      0.00000000	     -7.64116240	    106.80913544	   -437.58279419	   -322.85940168	  -1204.22640100	      0.00000000	     -0.00000000	      0.00000000	   2248.46753225	    -12.98244995	   -113.81775552	   -462.72720337	   -314.49526510	   -581.91890127	      0.00000000	     -0.00000000	     -0.00000000	  -1942.86232295	      0.00000000	     -0.00000000	      0.00000000	      0.00000000	      0.00000000	      0.00000000	      0.00000000	      0.00000000	      0.00000000
      0.02000000	      0.00000000	     -0.00000000	      0.00000000	      0.00000000	      0.00000000	      0.00000000	      0.00000000	      0.00000000	      0.00000000	     -8.50183678	    108.14199066	   -436.53903198	   -321.76501217	  -1205.04669953	      0.00000000	     -0.00000000	      0.00000000	   1974.11343239	    -12.50421669	   -114.75665174	   -467.15698242	   -314.63692599	   -581.25566289	      0.00000000	      0.00000000	     -0.00000000	  -1974.97516260	      0.00000000	     -0.00000000	      0.00000000	      0.00000000	      0.00000000	      0.00000000	      0.00000000	      0.00000000	      0.00000000
      0.03000000	      0.00000000	     -0.00000000	      0.00000000	      0.00000000	      0.00000000	      0.00000000	      0.00000000	      0.00000000	      0.00000000	     -9.72146130	    107.93692017	   -431.00381470	   -321.00996259	  -1205.29253637	      0.00000000	      0.00000000	      0.00000000	   1946.77876475	    -12.12458957	   -115.93769730	   -472.97796631	   -314.65262278	   -581.05392005	      0.00000000	      0.00000000	     -0.00000000	  -1917.32575250	      0.00000000	     -0.00000000	      0.00000000	      0.00000000	      0.00000000	      0.00000000	      0.00000000	      0.00000000	      0.00000000
      0.04000000	      0.00000000	     -0.00000000	      0.00000000	      0.00000000	      0.00000000	      0.00000000	      0.00000000	      0.00000000	      0.00000000	    -11.35281944	    108.14678955	   -426.03771973	   -319.44072335	  -1205.72357161	      0.00000000	      0.00000000	      0.00000000	   1791.89157231	    -11.32631377	   -117.73280235	   -478.32717896	   -315.28442859	   -580.62488544	      0.00000000	      0.00000000	     -0.00000000	  -1841.14154829	      0.00000000	     -0.00000000	      0.00000000	      0.00000000	      0.00000000	      0.00000000	      0.00000000	      0.00000000	      0.00000000
      0.05000000	      0.00000000	     -0.00000000	      0.00000000	      0.00000000	      0.00000000	      0.00000000	      0.00000000	      0.00000000	      0.00000000	    -12.45755100	    107.75865173	   -420.96453857	   -318.03508179	  -1206.48943285	      0.00000000	      0.00000000	      0.00000000	   1774.35227710	    -10.46788304	   -119.21204285	   -484.27331543	   -315.75919978	   -580.60117372	      0.00000000	      0.00000000	     -0.00000000	  -1855.54820156	      0.00000000	     -0.00000000	      0.00000000	      0.00000000	      0.00000000	      0.00000000	      0.00000000	      0.00000000	      0.00000000
      0.06000000	      0.00000000	     -0.00000000	      0.00000000	      0.00000000	      0.00000000	      0.00000000	      0.00000000	      0.00000000	      0.00000000	    -13.16734886	    107.28450775	   -417.11993408	   -317.40023497	  -1207.06294325	      0.00000000	     -0.00000000	      0.00000000	   1727.62680848	     -9.84690761	   -119.94085607	   -486.22909546	   -316.42365398	   -581.38300069	      0.00000000	      0.00000000	      0.00000000	  -1881.17733756	      0.00000000	     -0.00000000	      0.00000000	      0.00000000	      0.00000000	      0.00000000	      0.00000000	      0.00000000	      0.00000000
      0.07000000	      0.00000000	     -0.00000000	      0.00000000	      0.00000000	      0.00000000	      0.00000000	      0.00000000	      0.00000000	      0.00000000	    -13.85604858	    106.51872253	   -415.00207520	   -317.11912091	  -1206.80043869	      0.00000000	     -0.00000000	      0.00000000	   1494.61297479	     -9.46375187	   -120.82406533	   -491.17462158	   -317.15544478	   -580.92979761	      0.00000000	     -0.00000000	     -0.00000000	  -1979.42233686	      0.00000000	     -0.00000000	      0.00000000	      0.00000000	      0.00000000	      0.00000000	      0.00000000	      0.00000000	      0.00000000
      0.08000000	      0.00000000	     -0.00000000	      0.00000000	      0.00000000	      0.00000000	      0.00000000	      0.00000000	      0.00000000	      0.00000000	    -12.74846649	    105.14559937	   -413.83197021	   -317.63373270	  -1207.34963570	      0.00000000	      0.00000000	      0.00000000	   1779.67242522	     -8.87522800	   -120.78029555	   -491.84368896	   -317.85041121	   -581.52258608	      0.00000000	     -0.00000000	     -0.00000000	  -2073.34332901	      0.00000000	     -0.00000000	      0.00000000	      0.00000000	      0.00000000	      0.00000000	      0.00000000	      0.00000000	      0.00000000
      0.09000000	      0.00000000	     -0.00000000	      0.00000000	      0.00000000	      0.00000000	      0.00000000	      0.00000000	      0.00000000	      0.00000000	    -11.95420837	    104.22631073	   -414.87496948	   -318.08007180	  -1207.47973673	      0.00000000	      0.00000000	     -0.00000000	   1727.80676476	     -8.48819544	   -120.26621172	   -492.17544556	   -318.42877042	   -581.88667294	      0.00000000	      0.00000000	     -0.00000000	  -2112.37622934	      0.00000000	     -0.00000000	      0.00000000	      0.00000000	      0.00000000	      0.00000000	      0.00000000	      0.00000000	      0.00000000
      0.10000000	      0.00000000	     -0.00000000	      0.00000000	      0.00000000	      0.00000000	      0.00000000	      0.00000000	      0.00000000	      0.00000000	    -11.63050938	    104.24945831	   -413.86621094	   -319.83921859	  -1205.53114330	      0.00000000	      0.00000000	      0.00000000	   1783.25897078	     -8.45053766	   -119.75930712	   -494.19824219	   -318.81892790	   -581.88298433	      0.00000000	      0.00000000	     -0.00000000	  -2217.22436198	      0.00000000	     -0.00000000	      0.00000000	      0.00000000	      0.00000000	      0.00000000	      0.00000000	      0.00000000	      0.00000000
      0.11000000	      0.00000000	     -0.00000000	      0.00000000	      0.00000000	      0.00000000	      0.00000000	      0.00000000	      0.00000000	      0.00000000	    -10.87283993	    104.05390930	   -414.34771729	   -321.21749096	  -1206.07203779	      0.00000000	      0.00000000	      0.00000000	   1859.74203612	     -8.96503543	   -119.85252302	   -493.83053589	   -319.20023232	   -583.01831744	      0.00000000	      0.00000000	     -0.00000000	  -2352.42210416	      0.00000000	     -0.00000000	      0.00000000	      0.00000000	      0.00000000	      0.00000000	      0.00000000	      0.00000000	      0.00000000
      0.12000000	      0.00000000	     -0.00000000	      0.00000000	      0.00000000	      0.00000000	      0.00000000	      0.00000000	      0.00000000	      0.00000000	    -10.82227898	    103.30213928	   -412.95449829	   -322.43351161	  -1206.15113061	      0.00000000	     -0.00000000	      0.00000000	   1781.39248400	     -9.59757803	   -119.77535927	   -493.70037842	   -318.87816089	   -583.52905085	      0.00000000	      0.00000000	     -0.00000000	  -2153.32899036	      0.00000000	     -0.00000000	      0.00000000	      0.00000000	      0.00000000	      0.00000000	      0.00000000	      0.00000000	      0.00000000
      0.13000000	      0.00000000	     -0.00000000	      0.00000000	      0.00000000	      0.00000000	      0.00000000	      0.00000000	      0.00000000	      0.00000000	    -10.61605072	    102.92417908	   -409.71334839	   -323.59345326	  -1204.50111948	      0.00000000	      0.00000000	      0.00000000	   1586.66421763	     -9.93561836	   -119.51123723	   -493.08688354	   -319.27241582	   -582.94392450	      0.00000000	      0.00000000	     -0.00000000	  -2163.46535803	      0.00000000	     -0.00000000	      0.00000000	      0.00000000	      0.00000000	      0.00000000	      0.00000000	      0.00000000	      0.00000000
      0.14000000	      0.00000000	     -0.00000000	      0.00000000	      0.00000000	      0.00000000	      0.00000000	      0.00000000	      0.00000000	      0.00000000	    -10.25920868	    101.32689667	   -406.37500000	   -324.45395167	  -1204.34296178	      0.00000000	      0.00000000	      0.00000000	   1676.60797214	     -9.88073625	   -118.84094915	   -490.34204102	   -319.07642366	   -583.35773799	      0.00000000	     -0.00000000	     -0.00000000	  -2243.80208702	      0.00000000	     -0.00000000	      0.00000000	      0.00000000	      0.00000000	      0.00000000	      0.00000000	      0.00000000	      0.00000000
